<svg width="1990px" height="520px"
 viewBox="0.00 0.00 1990.12 519.60" xmlns="http://www.w3.org/2000/svg" xmlns:xlink="http://www.w3.org/1999/xlink">
<g id="graph0" class="graph" transform="scale(1.0 1.0) rotate(0.0) translate(4.0 515.6)">
<polygon fill="white" stroke="none" points="-4,4 -4,-515.6 1986.12,-515.6 1986.12,4 -4,4"/>
<!-- Start -->
<g id="node1" class="node">
<title>Start</title>
<ellipse fill="#dd9a7f" stroke="red" cx="75" cy="-316.6" rx="27.12" ry="27.12"/>
<ellipse fill="none" stroke="red" cx="75" cy="-316.6" rx="31.1" ry="31.1"/>
<text text-anchor="middle" x="75" y="-312.9" font-family="Times,serif" font-size="14.00">Start</text>
</g>
<!-- Start&#45;&gt;Start -->
<g id="edge1" class="edge">
<title>Start&#45;&gt;Start</title>
<path fill="none" stroke="black" d="M67.86,-346.92C67.78,-357.42 70.16,-365.89 75,-365.89 77.87,-365.89 79.88,-362.91 81.02,-358.28"/>
<polygon fill="black" stroke="black" points="84.49,-358.73 81.99,-348.43 77.52,-358.04 84.49,-358.73"/>
<text text-anchor="middle" x="75" y="-369.69" font-family="Times,serif" font-size="14.00">help</text>
</g>
<!-- Start&#45;&gt;Start -->
<g id="edge3" class="edge">
<title>Start&#45;&gt;Start</title>
<path fill="none" stroke="black" d="M62.04,-345.3C58.25,-364.8 62.57,-383.89 75,-383.89 85,-383.89 89.75,-371.53 89.25,-356.54"/>
<polygon fill="black" stroke="black" points="92.75,-356.34 88.13,-346.8 85.8,-357.14 92.75,-356.34"/>
<text text-anchor="middle" x="75" y="-387.69" font-family="Times,serif" font-size="14.00">run (no machine available)</text>
</g>
<!-- Start&#45;&gt;Start -->
<g id="edge6" class="edge">
<title>Start&#45;&gt;Start</title>
<path fill="none" stroke="black" d="M58.44,-343.23C48.38,-370.9 53.9,-401.89 75,-401.89 93.38,-401.89 99.93,-378.38 94.68,-354.03"/>
<polygon fill="black" stroke="black" points="98.12,-353.33 91.98,-344.69 91.39,-355.27 98.12,-353.33"/>
<text text-anchor="middle" x="75" y="-405.69" font-family="Times,serif" font-size="14.00">edit (no machine available)</text>
</g>
<!-- Running -->
<g id="node2" class="node">
<title>Running</title>
<ellipse fill="none" stroke="black" cx="338.8" cy="-392.6" rx="40.89" ry="18"/>
<text text-anchor="middle" x="338.8" y="-388.9" font-family="Times,serif" font-size="14.00">Running</text>
</g>
<!-- Start&#45;&gt;Running -->
<g id="edge2" class="edge">
<title>Start&#45;&gt;Running</title>
<path fill="none" stroke="black" d="M87.17,-345.73C94.97,-361.73 107.1,-380.2 124.3,-389.6 176.18,-417.95 246.28,-412.14 291.76,-403.73"/>
<polygon fill="black" stroke="black" points="292.15,-407.22 301.28,-401.85 290.79,-400.35 292.15,-407.22"/>
<text text-anchor="middle" x="189.3" y="-414.4" font-family="Times,serif" font-size="14.00">run (machine available)</text>
</g>
<!-- FirstInitState -->
<g id="node3" class="node">
<title>FirstInitState</title>
<ellipse fill="none" stroke="black" cx="338.8" cy="-315.6" rx="56.59" ry="18"/>
<text text-anchor="middle" x="338.8" y="-311.9" font-family="Times,serif" font-size="14.00">FirstInitState</text>
</g>
<!-- Start&#45;&gt;FirstInitState -->
<g id="edge4" class="edge">
<title>Start&#45;&gt;FirstInitState</title>
<path fill="none" stroke="black" d="M106.54,-316.48C146.5,-316.33 217.65,-316.06 270.51,-315.85"/>
<polygon fill="black" stroke="black" points="270.33,-319.35 280.32,-315.82 270.3,-312.35 270.33,-319.35"/>
<text text-anchor="middle" x="189.3" y="-319.4" font-family="Times,serif" font-size="14.00">new</text>
</g>
<!-- Editing -->
<g id="node4" class="node">
<title>Editing</title>
<ellipse fill="none" stroke="black" cx="546.69" cy="-264.6" rx="36.29" ry="18"/>
<text text-anchor="middle" x="546.69" y="-260.9" font-family="Times,serif" font-size="14.00">Editing</text>
</g>
<!-- Start&#45;&gt;Editing -->
<g id="edge5" class="edge">
<title>Start&#45;&gt;Editing</title>
<path fill="none" stroke="black" d="M99.87,-298.02C107.31,-293.15 115.8,-288.47 124.3,-285.6 254.93,-241.47 421.3,-250.88 500.21,-258.96"/>
<polygon fill="black" stroke="black" points="499.39,-262.39 509.7,-259.97 500.13,-255.43 499.39,-262.39"/>
<text text-anchor="middle" x="338.8" y="-259.4" font-family="Times,serif" font-size="14.00">edit (machine available)</text>
</g>
<!-- Running&#45;&gt;Start -->
<g id="edge7" class="edge">
<title>Running&#45;&gt;Start</title>
<path fill="none" stroke="black" d="M303.35,-383.43C247.43,-368.51 141.39,-340.09 124.3,-334.6 121.26,-333.62 118.14,-332.57 115,-331.48"/>
<polygon fill="black" stroke="black" points="116.47,-328.29 105.88,-328.2 114.11,-334.88 116.47,-328.29"/>
<text text-anchor="middle" x="189.3" y="-373.4" font-family="Times,serif" font-size="14.00">UserMachineExit</text>
</g>
<!-- FirstInitState&#45;&gt;Start -->
<g id="edge8" class="edge">
<title>FirstInitState&#45;&gt;Start</title>
<path fill="none" stroke="black" d="M294.77,-303.87C281.86,-300.88 267.59,-298.09 254.3,-296.6 196.88,-290.15 180.97,-285.33 124.3,-296.6 120.93,-297.27 117.51,-298.17 114.12,-299.23"/>
<polygon fill="black" stroke="black" points="113.17,-295.86 104.93,-302.53 115.53,-302.45 113.17,-295.86"/>
<text text-anchor="middle" x="189.3" y="-300.4" font-family="Times,serif" font-size="14.00">__cancel</text>
</g>
<!-- FirstInitState&#45;&gt;Editing -->
<g id="edge9" class="edge">
<title>FirstInitState&#45;&gt;Editing</title>
<path fill="none" stroke="black" d="M384.89,-304.89C415.28,-297.61 456.24,-287.7 492.3,-278.6 495.83,-277.71 499.49,-276.77 503.16,-275.82"/>
<polygon fill="black" stroke="black" points="503.83,-279.27 512.63,-273.36 502.07,-272.49 503.83,-279.27"/>
<text text-anchor="middle" x="457.8" y="-298.4" font-family="Times,serif" font-size="14.00">ReceiveText</text>
</g>
<!-- Editing&#45;&gt;Start -->
<g id="edge13" class="edge">
<title>Editing&#45;&gt;Start</title>
<path fill="none" stroke="black" d="M515.64,-254.96C508.06,-252.71 499.92,-250.43 492.3,-248.6 454.08,-239.39 444.45,-236.17 405.3,-232.6 280.54,-221.22 232.49,-191.45 124.3,-254.6 113.67,-260.8 104.54,-270.33 97.16,-280.06"/>
<polygon fill="black" stroke="black" points="94.39,-277.93 91.51,-288.13 100.12,-281.95 94.39,-277.93"/>
<text text-anchor="middle" x="338.8" y="-236.4" font-family="Times,serif" font-size="14.00">done</text>
</g>
<!-- ChangeInitStateName -->
<g id="node5" class="node">
<title>ChangeInitStateName</title>
<ellipse fill="none" stroke="black" cx="849.13" cy="-454.6" rx="89.08" ry="18"/>
<text text-anchor="middle" x="849.13" y="-450.9" font-family="Times,serif" font-size="14.00">ChangeInitStateName</text>
</g>
<!-- Editing&#45;&gt;ChangeInitStateName -->
<g id="edge10" class="edge">
<title>Editing&#45;&gt;ChangeInitStateName</title>
<path fill="none" stroke="black" d="M549.6,-282.77C554.84,-328.69 571.07,-447.36 601.09,-470.6 657.69,-514.4 745.19,-494.44 799.44,-475.15"/>
<polygon fill="black" stroke="black" points="800.57,-478.46 808.74,-471.71 798.14,-471.89 800.57,-478.46"/>
<text text-anchor="middle" x="671.59" y="-500.4" font-family="Times,serif" font-size="14.00">change initial state</text>
</g>
<!-- StateCreate -->
<g id="node6" class="node">
<title>StateCreate</title>
<ellipse fill="none" stroke="black" cx="849.13" cy="-340.6" rx="51.19" ry="18"/>
<text text-anchor="middle" x="849.13" y="-336.9" font-family="Times,serif" font-size="14.00">StateCreate</text>
</g>
<!-- Editing&#45;&gt;StateCreate -->
<g id="edge11" class="edge">
<title>Editing&#45;&gt;StateCreate</title>
<path fill="none" stroke="black" d="M552.28,-282.69C558.92,-304.66 573.56,-340.75 601.09,-356.6 663.85,-392.74 751.03,-374.37 803.29,-357.59"/>
<polygon fill="black" stroke="black" points="804.07,-361.02 812.45,-354.53 801.86,-354.38 804.07,-361.02"/>
<text text-anchor="middle" x="671.59" y="-380.4" font-family="Times,serif" font-size="14.00">state</text>
</g>
<!-- TransitionCreateFrom -->
<g id="node7" class="node">
<title>TransitionCreateFrom</title>
<ellipse fill="none" stroke="black" cx="849.13" cy="-249.6" rx="89.08" ry="18"/>
<text text-anchor="middle" x="849.13" y="-245.9" font-family="Times,serif" font-size="14.00">TransitionCreateFrom</text>
</g>
<!-- Editing&#45;&gt;TransitionCreateFrom -->
<g id="edge12" class="edge">
<title>Editing&#45;&gt;TransitionCreateFrom</title>
<path fill="none" stroke="black" d="M583.04,-262.83C624.05,-260.78 693.39,-257.32 750.87,-254.45"/>
<polygon fill="black" stroke="black" points="750.87,-257.96 760.68,-253.96 750.52,-250.97 750.87,-257.96"/>
<text text-anchor="middle" x="671.59" y="-265.4" font-family="Times,serif" font-size="14.00">transition</text>
</g>
<!-- ChangeInitStateName&#45;&gt;Editing -->
<g id="edge14" class="edge">
<title>ChangeInitStateName&#45;&gt;Editing</title>
<path fill="none" stroke="black" d="M760.96,-451.52C694.97,-448.42 613.58,-442.61 601.09,-432.6 559.3,-399.08 549.69,-332.85 547.8,-294.31"/>
<polygon fill="black" stroke="black" points="551.3,-294.24 547.47,-284.36 544.3,-294.47 551.3,-294.24"/>
<text text-anchor="middle" x="671.59" y="-453.4" font-family="Times,serif" font-size="14.00">__cancel</text>
</g>
<!-- ChangeInitStateName&#45;&gt;Editing -->
<g id="edge16" class="edge">
<title>ChangeInitStateName&#45;&gt;Editing</title>
<path fill="none" stroke="black" d="M811.54,-437.99C791.42,-429.5 765.8,-419.69 742.09,-413.6 680.85,-397.86 651.14,-433.24 601.09,-394.6 569.55,-370.24 556.52,-324.05 551.22,-293.8"/>
<polygon fill="black" stroke="black" points="554.72,-293.52 549.73,-284.18 547.8,-294.6 554.72,-293.52"/>
<text text-anchor="middle" x="671.59" y="-417.4" font-family="Times,serif" font-size="14.00">ReceiveText (state exists)</text>
</g>
<!-- ChangeInitStateName&#45;&gt;ChangeInitStateName -->
<g id="edge15" class="edge">
<title>ChangeInitStateName&#45;&gt;ChangeInitStateName</title>
<path fill="none" stroke="black" d="M817.67,-471.63C811.25,-481.45 821.74,-490.6 849.13,-490.6 864.97,-490.6 875.16,-487.54 879.69,-483.07"/>
<polygon fill="black" stroke="black" points="883.18,-483.39 880.47,-473.14 876.2,-482.84 883.18,-483.39"/>
<text text-anchor="middle" x="849.13" y="-494.4" font-family="Times,serif" font-size="14.00">ReceiveText (state doesn&#39;t exist)</text>
</g>
<!-- StateCreate&#45;&gt;Editing -->
<g id="edge17" class="edge">
<title>StateCreate&#45;&gt;Editing</title>
<path fill="none" stroke="black" d="M798.13,-337.99C731.09,-334.21 618.43,-326.76 601.09,-318.6 587.67,-312.28 575.73,-301.09 566.57,-290.52"/>
<polygon fill="black" stroke="black" points="569.54,-288.63 560.51,-283.09 564.11,-293.05 569.54,-288.63"/>
<text text-anchor="middle" x="671.59" y="-337.4" font-family="Times,serif" font-size="14.00">__cancel</text>
</g>
<!-- StateCreate&#45;&gt;Editing -->
<g id="edge19" class="edge">
<title>StateCreate&#45;&gt;Editing</title>
<path fill="none" stroke="black" d="M809.88,-328.69C794.21,-323.42 776.05,-316.78 760.09,-309.6 751.75,-305.84 750.78,-302.48 742.09,-299.6 682.08,-279.67 662.9,-293.94 601.09,-280.6 597.02,-279.72 592.81,-278.68 588.62,-277.57"/>
<polygon fill="black" stroke="black" points="589.73,-274.24 579.15,-274.9 587.83,-280.98 589.73,-274.24"/>
<text text-anchor="middle" x="671.59" y="-303.4" font-family="Times,serif" font-size="14.00">ReceiveText (state valid)</text>
</g>
<!-- StateCreate&#45;&gt;StateCreate -->
<g id="edge18" class="edge">
<title>StateCreate&#45;&gt;StateCreate</title>
<path fill="none" stroke="black" d="M819.43,-355.39C809.76,-366.01 819.66,-376.6 849.13,-376.6 868.02,-376.6 878.86,-372.25 881.68,-366.34"/>
<polygon fill="black" stroke="black" points="885.12,-365.65 879.22,-356.85 878.34,-367.41 885.12,-365.65"/>
<text text-anchor="middle" x="849.13" y="-380.4" font-family="Times,serif" font-size="14.00">ReceiveText (state duplicated)</text>
</g>
<!-- TransitionCreateFrom&#45;&gt;Editing -->
<g id="edge20" class="edge">
<title>TransitionCreateFrom&#45;&gt;Editing</title>
<path fill="none" stroke="black" d="M787.76,-236.13C737.13,-227.22 663.34,-219.78 601.09,-235.6 593.47,-237.53 585.75,-240.8 578.65,-244.46"/>
<polygon fill="black" stroke="black" points="577.1,-241.32 570.08,-249.26 580.51,-247.43 577.1,-241.32"/>
<text text-anchor="middle" x="671.59" y="-239.4" font-family="Times,serif" font-size="14.00">__cancel</text>
</g>
<!-- TransitionCreateFrom&#45;&gt;TransitionCreateFrom -->
<g id="edge21" class="edge">
<title>TransitionCreateFrom&#45;&gt;TransitionCreateFrom</title>
<path fill="none" stroke="black" d="M817.67,-266.63C811.25,-276.45 821.74,-285.6 849.13,-285.6 864.97,-285.6 875.16,-282.54 879.69,-278.07"/>
<polygon fill="black" stroke="black" points="883.18,-278.39 880.47,-268.14 876.2,-277.84 883.18,-278.39"/>
<text text-anchor="middle" x="849.13" y="-289.4" font-family="Times,serif" font-size="14.00">ReceiveText (state doesn&#39;t exist)</text>
</g>
<!-- TransitionCreateTo -->
<g id="node8" class="node">
<title>TransitionCreateTo</title>
<ellipse fill="none" stroke="black" cx="1194.47" cy="-198.6" rx="79.09" ry="18"/>
<text text-anchor="middle" x="1194.47" y="-194.9" font-family="Times,serif" font-size="14.00">TransitionCreateTo</text>
</g>
<!-- TransitionCreateFrom&#45;&gt;TransitionCreateTo -->
<g id="edge22" class="edge">
<title>TransitionCreateFrom&#45;&gt;TransitionCreateTo</title>
<path fill="none" stroke="black" d="M922.11,-238.91C978.89,-230.47 1057.93,-218.73 1116.07,-210.09"/>
<polygon fill="black" stroke="black" points="1116.53,-213.56 1125.91,-208.63 1115.5,-206.64 1116.53,-213.56"/>
<text text-anchor="middle" x="1026.68" y="-237.4" font-family="Times,serif" font-size="14.00">ReceiveText (state exists)</text>
</g>
<!-- TransitionCreateTo&#45;&gt;Editing -->
<g id="edge23" class="edge">
<title>TransitionCreateTo&#45;&gt;Editing</title>
<path fill="none" stroke="black" d="M1130.1,-187.83C1018.52,-171.72 781.73,-150.39 601.09,-222.6 590.64,-226.78 580.55,-233.68 572.02,-240.69"/>
<polygon fill="black" stroke="black" points="569.77,-238.01 564.56,-247.23 574.39,-243.27 569.77,-238.01"/>
<text text-anchor="middle" x="849.13" y="-185.4" font-family="Times,serif" font-size="14.00">__cancel</text>
</g>
<!-- TransitionCreateTo&#45;&gt;TransitionCreateTo -->
<g id="edge24" class="edge">
<title>TransitionCreateTo&#45;&gt;TransitionCreateTo</title>
<path fill="none" stroke="black" d="M1164.74,-215.63C1158.67,-225.45 1168.58,-234.6 1194.47,-234.6 1209.44,-234.6 1219.06,-231.54 1223.35,-227.07"/>
<polygon fill="black" stroke="black" points="1226.84,-227.38 1224.09,-217.14 1219.86,-226.86 1226.84,-227.38"/>
<text text-anchor="middle" x="1194.47" y="-238.4" font-family="Times,serif" font-size="14.00">ReceiveText (state doesn&#39;t exist</text>
</g>
<!-- TransitionCreateWhenReceive -->
<g id="node9" class="node">
<title>TransitionCreateWhenReceive</title>
<ellipse fill="none" stroke="black" cx="1570.35" cy="-155.6" rx="119.68" ry="18"/>
<text text-anchor="middle" x="1570.35" y="-151.9" font-family="Times,serif" font-size="14.00">TransitionCreateWhenReceive</text>
</g>
<!-- TransitionCreateTo&#45;&gt;TransitionCreateWhenReceive -->
<g id="edge25" class="edge">
<title>TransitionCreateTo&#45;&gt;TransitionCreateWhenReceive</title>
<path fill="none" stroke="black" d="M1265.79,-190.51C1321.27,-184.13 1399.56,-175.12 1462.73,-167.86"/>
<polygon fill="black" stroke="black" points="1462.9,-171.36 1472.43,-166.74 1462.1,-164.41 1462.9,-171.36"/>
<text text-anchor="middle" x="1362.26" y="-191.4" font-family="Times,serif" font-size="14.00">ReceiveText (state exists)</text>
</g>
<!-- TransitionCreateWhenReceive&#45;&gt;Editing -->
<g id="edge26" class="edge">
<title>TransitionCreateWhenReceive&#45;&gt;Editing</title>
<path fill="none" stroke="black" d="M1452.32,-152.34C1328.89,-149.57 1128.77,-147 956.18,-153.6 868.84,-156.93 847.22,-161.7 760.09,-168.6 689.41,-174.19 661.89,-145.12 601.09,-181.6 580.7,-193.83 566.73,-217.19 558.2,-236.02"/>
<polygon fill="black" stroke="black" points="555.05,-234.49 554.4,-245.06 561.5,-237.21 555.05,-234.49"/>
<text text-anchor="middle" x="1026.68" y="-157.4" font-family="Times,serif" font-size="14.00">__cancel</text>
</g>
<!-- TransitionCreateAction -->
<g id="node10" class="node">
<title>TransitionCreateAction</title>
<ellipse fill="none" stroke="black" cx="1888.53" cy="-83.6" rx="93.68" ry="18"/>
<text text-anchor="middle" x="1888.53" y="-79.9" font-family="Times,serif" font-size="14.00">TransitionCreateAction</text>
</g>
<!-- TransitionCreateWhenReceive&#45;&gt;TransitionCreateAction -->
<g id="edge27" class="edge">
<title>TransitionCreateWhenReceive&#45;&gt;TransitionCreateAction</title>
<path fill="none" stroke="black" d="M1666.8,-144.64C1701.75,-139.61 1741.42,-132.69 1776.94,-123.6 1796.86,-118.49 1818.23,-111.21 1836.82,-104.26"/>
<polygon fill="black" stroke="black" points="1837.9,-107.59 1846,-100.76 1835.41,-101.05 1837.9,-107.59"/>
<text text-anchor="middle" x="1742.44" y="-142.4" font-family="Times,serif" font-size="14.00">ReceiveText</text>
</g>
<!-- TransitionCreateAction&#45;&gt;Editing -->
<g id="edge28" class="edge">
<title>TransitionCreateAction&#45;&gt;Editing</title>
<path fill="none" stroke="black" d="M1809.39,-93.61C1745.49,-100.94 1652.73,-109.6 1571.35,-109.6 848.13,-109.6 848.13,-109.6 848.13,-109.6 736.11,-109.6 690.27,-91.8 601.09,-159.6 576.47,-178.32 562.3,-211.57 554.83,-235.65"/>
<polygon fill="black" stroke="black" points="551.49,-234.59 552.1,-245.17 558.22,-236.52 551.49,-234.59"/>
<text text-anchor="middle" x="1194.47" y="-113.4" font-family="Times,serif" font-size="14.00">__cancel</text>
</g>
<!-- TransitionCreateAction&#45;&gt;Editing -->
<g id="edge29" class="edge">
<title>TransitionCreateAction&#45;&gt;Editing</title>
<path fill="none" stroke="black" d="M1808.73,-73.9C1744.85,-66.87 1652.43,-58.6 1571.35,-58.6 848.13,-58.6 848.13,-58.6 848.13,-58.6 736.45,-58.6 685.32,-31.26 601.09,-104.6 563.09,-137.68 552.05,-198.56 548.9,-234.94"/>
<polygon fill="black" stroke="black" points="545.42,-234.53 548.21,-244.75 552.4,-235.02 545.42,-234.53"/>
<text text-anchor="middle" x="1194.47" y="-62.4" font-family="Times,serif" font-size="14.00">__none</text>
</g>
<!-- TransitionCreateAction&#45;&gt;Editing -->
<g id="edge30" class="edge">
<title>TransitionCreateAction&#45;&gt;Editing</title>
<path fill="none" stroke="black" d="M1846.35,-67.11C1786.73,-44.75 1672.41,-7.6 1571.35,-7.6 848.13,-7.6 848.13,-7.6 848.13,-7.6 736.69,-7.6 682.69,25.31 601.09,-50.6 574.3,-75.52 557.75,-182.5 551.08,-235.13"/>
<polygon fill="black" stroke="black" points="547.63,-234.52 549.89,-244.87 554.58,-235.37 547.63,-234.52"/>
<text text-anchor="middle" x="1194.47" y="-11.4" font-family="Times,serif" font-size="14.00">ReceiveText</text>
</g>
</g>
</svg>
