<svg width="2091px" height="520px"
 viewBox="0.00 0.00 2091.41 519.92" xmlns="http://www.w3.org/2000/svg" xmlns:xlink="http://www.w3.org/1999/xlink">
<g id="graph0" class="graph" transform="scale(1.0 1.0) rotate(0.0) translate(4.0 515.92)">
<polygon fill="white" stroke="none" points="-4,4 -4,-515.92 2087.41,-515.92 2087.41,4 -4,4"/>
<!-- Start -->
<g id="node1" class="node">
<title>Start</title>
<ellipse fill="#dd9a7f" stroke="red" cx="80" cy="-249.92" rx="27.12" ry="27.12"/>
<ellipse fill="none" stroke="red" cx="80" cy="-249.92" rx="31.1" ry="31.1"/>
<text text-anchor="middle" x="80" y="-246.22" font-family="Times,serif" font-size="14.00">Start</text>
</g>
<!-- Start&#45;&gt;Start -->
<g id="edge1" class="edge">
<title>Start&#45;&gt;Start</title>
<path fill="none" stroke="black" d="M73.26,-280.73C73.26,-291 75.51,-299.22 80,-299.22 82.6,-299.22 84.44,-296.47 85.54,-292.17"/>
<polygon fill="black" stroke="black" points="89.02,-292.55 86.58,-282.24 82.06,-291.82 89.02,-292.55"/>
<text text-anchor="middle" x="80" y="-303.02" font-family="Times,serif" font-size="14.00">help</text>
</g>
<!-- Start&#45;&gt;Start -->
<g id="edge3" class="edge">
<title>Start&#45;&gt;Start</title>
<path fill="none" stroke="black" d="M67.71,-278.97C64.25,-298.35 68.34,-317.22 80,-317.22 89.38,-317.22 93.86,-305 93.46,-290.13"/>
<polygon fill="black" stroke="black" points="96.97,-290.06 92.45,-280.48 90,-290.79 96.97,-290.06"/>
<text text-anchor="middle" x="80" y="-321.02" font-family="Times,serif" font-size="14.00">run (no machine available)</text>
</g>
<!-- Start&#45;&gt;Start -->
<g id="edge6" class="edge">
<title>Start&#45;&gt;Start</title>
<path fill="none" stroke="black" d="M64.22,-277C54.94,-304.55 60.2,-335.22 80,-335.22 97.17,-335.22 103.41,-312.15 98.71,-288.06"/>
<polygon fill="black" stroke="black" points="102.11,-287.23 96.17,-278.46 95.34,-289.02 102.11,-287.23"/>
<text text-anchor="middle" x="80" y="-339.02" font-family="Times,serif" font-size="14.00">edit (no machine available)</text>
</g>
<!-- Start&#45;&gt;Start -->
<g id="edge7" class="edge">
<title>Start&#45;&gt;Start</title>
<path fill="none" stroke="black" d="M61.93,-275.6C45.68,-310.55 51.7,-353.22 80,-353.22 105.53,-353.22 112.93,-318.48 102.19,-286.01"/>
<polygon fill="black" stroke="black" points="105.56,-285.01 98.63,-277 99.06,-287.59 105.56,-285.01"/>
<text text-anchor="middle" x="80" y="-357.02" font-family="Times,serif" font-size="14.00">graph (no machine available)</text>
</g>
<!-- Running -->
<g id="node2" class="node">
<title>Running</title>
<ellipse fill="none" stroke="black" cx="421.44" cy="-392.92" rx="40.89" ry="18"/>
<text text-anchor="middle" x="421.44" y="-389.22" font-family="Times,serif" font-size="14.00">Running</text>
</g>
<!-- Start&#45;&gt;Running -->
<g id="edge2" class="edge">
<title>Start&#45;&gt;Running</title>
<path fill="none" stroke="black" d="M81.95,-281.31C84.83,-314.44 94.98,-365.19 129.3,-389.92 202.65,-442.78 315.63,-423.24 377.05,-406.66"/>
<polygon fill="black" stroke="black" points="377.76,-410.1 386.44,-404.03 375.87,-403.36 377.76,-410.1"/>
<text text-anchor="middle" x="223.8" y="-427.72" font-family="Times,serif" font-size="14.00">run (machine available)</text>
</g>
<!-- FirstInitState -->
<g id="node3" class="node">
<title>FirstInitState</title>
<ellipse fill="none" stroke="black" cx="421.44" cy="-315.92" rx="56.59" ry="18"/>
<text text-anchor="middle" x="421.44" y="-312.22" font-family="Times,serif" font-size="14.00">FirstInitState</text>
</g>
<!-- Start&#45;&gt;FirstInitState -->
<g id="edge4" class="edge">
<title>Start&#45;&gt;FirstInitState</title>
<path fill="none" stroke="black" d="M94.37,-277.9C102.44,-291.4 114.12,-306.3 129.3,-313.92 167.4,-333.06 281.75,-327.84 355.28,-322.06"/>
<polygon fill="black" stroke="black" points="355.52,-325.55 365.21,-321.25 354.96,-318.57 355.52,-325.55"/>
<text text-anchor="middle" x="223.8" y="-330.72" font-family="Times,serif" font-size="14.00">new</text>
</g>
<!-- Editing -->
<g id="node4" class="node">
<title>Editing</title>
<ellipse fill="none" stroke="black" cx="647.98" cy="-264.92" rx="36.29" ry="18"/>
<text text-anchor="middle" x="647.98" y="-261.22" font-family="Times,serif" font-size="14.00">Editing</text>
</g>
<!-- Start&#45;&gt;Editing -->
<g id="edge5" class="edge">
<title>Start&#45;&gt;Editing</title>
<path fill="none" stroke="black" d="M111.43,-250.73C204.79,-253.2 487.63,-260.7 600.11,-263.68"/>
<polygon fill="black" stroke="black" points="599.8,-267.17 609.89,-263.94 599.98,-260.17 599.8,-267.17"/>
<text text-anchor="middle" x="421.44" y="-264.72" font-family="Times,serif" font-size="14.00">edit (machine available)</text>
</g>
<!-- GraphChooseFormat -->
<g id="node5" class="node">
<title>GraphChooseFormat</title>
<ellipse fill="none" stroke="black" cx="421.44" cy="-177.92" rx="85.29" ry="18"/>
<text text-anchor="middle" x="421.44" y="-174.22" font-family="Times,serif" font-size="14.00">GraphChooseFormat</text>
</g>
<!-- Start&#45;&gt;GraphChooseFormat -->
<g id="edge8" class="edge">
<title>Start&#45;&gt;GraphChooseFormat</title>
<path fill="none" stroke="black" d="M110.18,-240.64C116.44,-238.88 123.05,-237.2 129.3,-235.92 212.2,-218.97 235.82,-231.85 318.3,-212.92 335.07,-209.07 352.95,-203.48 368.99,-197.89"/>
<polygon fill="black" stroke="black" points="370.09,-201.21 378.33,-194.56 367.74,-194.62 370.09,-201.21"/>
<text text-anchor="middle" x="223.8" y="-239.72" font-family="Times,serif" font-size="14.00">graph (machine available)</text>
</g>
<!-- Running&#45;&gt;Start -->
<g id="edge9" class="edge">
<title>Running&#45;&gt;Start</title>
<path fill="none" stroke="black" d="M384.65,-384.47C365.12,-380.05 340.46,-374.77 318.3,-370.92 276.56,-363.68 163.83,-370.47 129.3,-345.92 110.82,-332.78 99.01,-310.49 91.69,-290.69"/>
<polygon fill="black" stroke="black" points="95.08,-289.81 88.56,-281.46 88.45,-292.05 95.08,-289.81"/>
<text text-anchor="middle" x="223.8" y="-374.72" font-family="Times,serif" font-size="14.00">UserMachineExit</text>
</g>
<!-- FirstInitState&#45;&gt;Start -->
<g id="edge10" class="edge">
<title>FirstInitState&#45;&gt;Start</title>
<path fill="none" stroke="black" d="M374.6,-305.45C357.06,-301.72 336.82,-297.75 318.3,-294.92 234.84,-282.18 210.02,-300.63 129.3,-275.92 125.11,-274.64 120.88,-272.98 116.74,-271.12"/>
<polygon fill="black" stroke="black" points="118.62,-268.15 108.11,-266.86 115.52,-274.43 118.62,-268.15"/>
<text text-anchor="middle" x="223.8" y="-298.72" font-family="Times,serif" font-size="14.00">__cancel</text>
</g>
<!-- FirstInitState&#45;&gt;Editing -->
<g id="edge11" class="edge">
<title>FirstInitState&#45;&gt;Editing</title>
<path fill="none" stroke="black" d="M469.78,-306.26C504.21,-299.1 551.9,-288.89 593.58,-278.92 597.12,-278.07 600.79,-277.17 604.47,-276.24"/>
<polygon fill="black" stroke="black" points="605.13,-279.69 613.95,-273.81 603.39,-272.91 605.13,-279.69"/>
<text text-anchor="middle" x="559.08" y="-296.72" font-family="Times,serif" font-size="14.00">ReceiveText</text>
</g>
<!-- Editing&#45;&gt;Start -->
<g id="edge15" class="edge">
<title>Editing&#45;&gt;Start</title>
<path fill="none" stroke="black" d="M633.96,-247.86C611.38,-219.59 562.02,-163.45 506.58,-135.92 430.42,-98.1 402.99,-109.51 318.3,-101.92 234.63,-94.43 197.29,-52.59 129.3,-101.92 96.38,-125.81 85.47,-172.75 82.07,-207.39"/>
<polygon fill="black" stroke="black" points="78.6,-206.87 81.31,-217.11 85.58,-207.42 78.6,-206.87"/>
<text text-anchor="middle" x="421.44" y="-139.72" font-family="Times,serif" font-size="14.00">done</text>
</g>
<!-- ChangeInitStateName -->
<g id="node6" class="node">
<title>ChangeInitStateName</title>
<ellipse fill="none" stroke="black" cx="950.42" cy="-454.92" rx="89.08" ry="18"/>
<text text-anchor="middle" x="950.42" y="-451.22" font-family="Times,serif" font-size="14.00">ChangeInitStateName</text>
</g>
<!-- Editing&#45;&gt;ChangeInitStateName -->
<g id="edge12" class="edge">
<title>Editing&#45;&gt;ChangeInitStateName</title>
<path fill="none" stroke="black" d="M650.89,-283.09C656.12,-329.01 672.35,-447.69 702.38,-470.92 758.98,-514.72 846.48,-494.77 900.72,-475.47"/>
<polygon fill="black" stroke="black" points="901.85,-478.78 910.02,-472.03 899.43,-472.22 901.85,-478.78"/>
<text text-anchor="middle" x="772.88" y="-500.72" font-family="Times,serif" font-size="14.00">change initial state</text>
</g>
<!-- StateCreate -->
<g id="node7" class="node">
<title>StateCreate</title>
<ellipse fill="none" stroke="black" cx="950.42" cy="-340.92" rx="51.19" ry="18"/>
<text text-anchor="middle" x="950.42" y="-337.22" font-family="Times,serif" font-size="14.00">StateCreate</text>
</g>
<!-- Editing&#45;&gt;StateCreate -->
<g id="edge13" class="edge">
<title>Editing&#45;&gt;StateCreate</title>
<path fill="none" stroke="black" d="M653.56,-283.02C660.21,-304.99 674.85,-341.07 702.38,-356.92 765.14,-393.06 852.32,-374.69 904.57,-357.91"/>
<polygon fill="black" stroke="black" points="905.36,-361.34 913.74,-354.85 903.14,-354.7 905.36,-361.34"/>
<text text-anchor="middle" x="772.88" y="-380.72" font-family="Times,serif" font-size="14.00">state</text>
</g>
<!-- TransitionCreateFrom -->
<g id="node8" class="node">
<title>TransitionCreateFrom</title>
<ellipse fill="none" stroke="black" cx="950.42" cy="-249.92" rx="89.08" ry="18"/>
<text text-anchor="middle" x="950.42" y="-246.22" font-family="Times,serif" font-size="14.00">TransitionCreateFrom</text>
</g>
<!-- Editing&#45;&gt;TransitionCreateFrom -->
<g id="edge14" class="edge">
<title>Editing&#45;&gt;TransitionCreateFrom</title>
<path fill="none" stroke="black" d="M684.33,-263.15C725.34,-261.11 794.67,-257.65 852.15,-254.78"/>
<polygon fill="black" stroke="black" points="852.15,-258.28 861.97,-254.29 851.8,-251.29 852.15,-258.28"/>
<text text-anchor="middle" x="772.88" y="-265.72" font-family="Times,serif" font-size="14.00">transition</text>
</g>
<!-- GraphChooseFormat&#45;&gt;Start -->
<g id="edge33" class="edge">
<title>GraphChooseFormat&#45;&gt;Start</title>
<path fill="none" stroke="black" d="M336.69,-175.34C263.81,-174.39 164.5,-176.61 129.3,-193.92 119.65,-198.66 111.15,-206.29 104.08,-214.41"/>
<polygon fill="black" stroke="black" points="101.42,-212.13 97.92,-222.12 106.89,-216.49 101.42,-212.13"/>
<text text-anchor="middle" x="223.8" y="-197.72" font-family="Times,serif" font-size="14.00">svg</text>
</g>
<!-- GraphChooseFormat&#45;&gt;Start -->
<g id="edge34" class="edge">
<title>GraphChooseFormat&#45;&gt;Start</title>
<path fill="none" stroke="black" d="M365.66,-163.88C350.43,-160.6 333.81,-157.57 318.3,-155.92 276.53,-151.47 165.15,-134.04 129.3,-155.92 110.36,-167.48 98.53,-189.1 91.33,-208.69"/>
<polygon fill="black" stroke="black" points="88.02,-207.56 88.17,-218.16 94.66,-209.78 88.02,-207.56"/>
<text text-anchor="middle" x="223.8" y="-159.72" font-family="Times,serif" font-size="14.00">png</text>
</g>
<!-- GraphChooseFormat&#45;&gt;Start -->
<g id="edge35" class="edge">
<title>GraphChooseFormat&#45;&gt;Start</title>
<path fill="none" stroke="black" d="M392.38,-160.6C336.97,-128.86 211.74,-69.56 129.3,-125.92 102.73,-144.08 90.77,-179.2 85.4,-207.44"/>
<polygon fill="black" stroke="black" points="81.97,-206.72 83.78,-217.16 88.87,-207.87 81.97,-206.72"/>
<text text-anchor="middle" x="223.8" y="-129.72" font-family="Times,serif" font-size="14.00">ReceiveText (unsupported format)</text>
</g>
<!-- ChangeInitStateName&#45;&gt;Editing -->
<g id="edge16" class="edge">
<title>ChangeInitStateName&#45;&gt;Editing</title>
<path fill="none" stroke="black" d="M862.25,-451.85C796.25,-448.74 714.87,-442.94 702.38,-432.92 660.58,-399.4 650.98,-333.17 649.08,-294.63"/>
<polygon fill="black" stroke="black" points="652.58,-294.57 648.76,-284.69 645.59,-294.79 652.58,-294.57"/>
<text text-anchor="middle" x="772.88" y="-453.72" font-family="Times,serif" font-size="14.00">__cancel</text>
</g>
<!-- ChangeInitStateName&#45;&gt;Editing -->
<g id="edge18" class="edge">
<title>ChangeInitStateName&#45;&gt;Editing</title>
<path fill="none" stroke="black" d="M912.82,-438.32C892.7,-429.82 867.08,-420.01 843.38,-413.92 782.13,-398.19 752.43,-433.56 702.38,-394.92 670.83,-370.57 657.81,-324.38 652.51,-294.12"/>
<polygon fill="black" stroke="black" points="656,-293.85 651.01,-284.5 649.09,-294.92 656,-293.85"/>
<text text-anchor="middle" x="772.88" y="-417.72" font-family="Times,serif" font-size="14.00">ReceiveText (state exists)</text>
</g>
<!-- ChangeInitStateName&#45;&gt;ChangeInitStateName -->
<g id="edge17" class="edge">
<title>ChangeInitStateName&#45;&gt;ChangeInitStateName</title>
<path fill="none" stroke="black" d="M918.96,-471.96C912.54,-481.78 923.02,-490.92 950.42,-490.92 966.26,-490.92 976.44,-487.86 980.98,-483.39"/>
<polygon fill="black" stroke="black" points="984.46,-483.71 981.76,-473.47 977.48,-483.16 984.46,-483.71"/>
<text text-anchor="middle" x="950.42" y="-494.72" font-family="Times,serif" font-size="14.00">ReceiveText (state doesn&#39;t exist)</text>
</g>
<!-- StateCreate&#45;&gt;Editing -->
<g id="edge19" class="edge">
<title>StateCreate&#45;&gt;Editing</title>
<path fill="none" stroke="black" d="M899.42,-338.31C832.38,-334.53 719.71,-327.08 702.38,-318.92 688.96,-312.6 677.02,-301.41 667.85,-290.85"/>
<polygon fill="black" stroke="black" points="670.82,-288.95 661.79,-283.41 665.4,-293.37 670.82,-288.95"/>
<text text-anchor="middle" x="772.88" y="-337.72" font-family="Times,serif" font-size="14.00">__cancel</text>
</g>
<!-- StateCreate&#45;&gt;Editing -->
<g id="edge21" class="edge">
<title>StateCreate&#45;&gt;Editing</title>
<path fill="none" stroke="black" d="M911.17,-329.02C895.5,-323.74 877.34,-317.1 861.38,-309.92 853.03,-306.16 852.06,-302.8 843.38,-299.92 783.36,-280 764.19,-294.26 702.38,-280.92 698.31,-280.04 694.09,-279.01 689.91,-277.89"/>
<polygon fill="black" stroke="black" points="691.01,-274.57 680.44,-275.22 689.11,-281.3 691.01,-274.57"/>
<text text-anchor="middle" x="772.88" y="-303.72" font-family="Times,serif" font-size="14.00">ReceiveText (state valid)</text>
</g>
<!-- StateCreate&#45;&gt;StateCreate -->
<g id="edge20" class="edge">
<title>StateCreate&#45;&gt;StateCreate</title>
<path fill="none" stroke="black" d="M920.71,-355.71C911.04,-366.34 920.94,-376.92 950.42,-376.92 969.3,-376.92 980.15,-372.58 982.97,-366.66"/>
<polygon fill="black" stroke="black" points="986.4,-365.98 980.5,-357.18 979.63,-367.73 986.4,-365.98"/>
<text text-anchor="middle" x="950.42" y="-380.72" font-family="Times,serif" font-size="14.00">ReceiveText (state duplicated)</text>
</g>
<!-- TransitionCreateFrom&#45;&gt;Editing -->
<g id="edge22" class="edge">
<title>TransitionCreateFrom&#45;&gt;Editing</title>
<path fill="none" stroke="black" d="M889.04,-236.46C838.42,-227.54 764.62,-220.11 702.38,-235.92 694.75,-237.86 687.04,-241.13 679.93,-244.79"/>
<polygon fill="black" stroke="black" points="678.38,-241.65 671.36,-249.58 681.8,-247.75 678.38,-241.65"/>
<text text-anchor="middle" x="772.88" y="-239.72" font-family="Times,serif" font-size="14.00">__cancel</text>
</g>
<!-- TransitionCreateFrom&#45;&gt;TransitionCreateFrom -->
<g id="edge23" class="edge">
<title>TransitionCreateFrom&#45;&gt;TransitionCreateFrom</title>
<path fill="none" stroke="black" d="M918.96,-266.96C912.54,-276.78 923.02,-285.92 950.42,-285.92 966.26,-285.92 976.44,-282.86 980.98,-278.39"/>
<polygon fill="black" stroke="black" points="984.46,-278.71 981.76,-268.47 977.48,-278.16 984.46,-278.71"/>
<text text-anchor="middle" x="950.42" y="-289.72" font-family="Times,serif" font-size="14.00">ReceiveText (state doesn&#39;t exist)</text>
</g>
<!-- TransitionCreateTo -->
<g id="node9" class="node">
<title>TransitionCreateTo</title>
<ellipse fill="none" stroke="black" cx="1295.75" cy="-198.92" rx="79.09" ry="18"/>
<text text-anchor="middle" x="1295.75" y="-195.22" font-family="Times,serif" font-size="14.00">TransitionCreateTo</text>
</g>
<!-- TransitionCreateFrom&#45;&gt;TransitionCreateTo -->
<g id="edge24" class="edge">
<title>TransitionCreateFrom&#45;&gt;TransitionCreateTo</title>
<path fill="none" stroke="black" d="M1023.39,-239.23C1080.17,-230.79 1159.21,-219.05 1217.35,-210.42"/>
<polygon fill="black" stroke="black" points="1217.81,-213.89 1227.19,-208.96 1216.79,-206.96 1217.81,-213.89"/>
<text text-anchor="middle" x="1127.96" y="-236.72" font-family="Times,serif" font-size="14.00">ReceiveText (state exists)</text>
</g>
<!-- TransitionCreateTo&#45;&gt;Editing -->
<g id="edge25" class="edge">
<title>TransitionCreateTo&#45;&gt;Editing</title>
<path fill="none" stroke="black" d="M1231.78,-187.95C1120.33,-171.4 883.05,-149.15 702.38,-221.92 691.56,-226.28 681.2,-233.6 672.54,-240.97"/>
<polygon fill="black" stroke="black" points="670.35,-238.23 665.29,-247.54 675.05,-243.42 670.35,-238.23"/>
<text text-anchor="middle" x="950.42" y="-183.72" font-family="Times,serif" font-size="14.00">__cancel</text>
</g>
<!-- TransitionCreateTo&#45;&gt;TransitionCreateTo -->
<g id="edge26" class="edge">
<title>TransitionCreateTo&#45;&gt;TransitionCreateTo</title>
<path fill="none" stroke="black" d="M1266.02,-215.96C1259.95,-225.78 1269.86,-234.92 1295.75,-234.92 1310.72,-234.92 1320.35,-231.86 1324.63,-227.39"/>
<polygon fill="black" stroke="black" points="1328.12,-227.7 1325.37,-217.47 1321.14,-227.18 1328.12,-227.7"/>
<text text-anchor="middle" x="1295.75" y="-238.72" font-family="Times,serif" font-size="14.00">ReceiveText (state doesn&#39;t exist</text>
</g>
<!-- TransitionCreateWhenReceive -->
<g id="node10" class="node">
<title>TransitionCreateWhenReceive</title>
<ellipse fill="none" stroke="black" cx="1671.64" cy="-155.92" rx="119.68" ry="18"/>
<text text-anchor="middle" x="1671.64" y="-152.22" font-family="Times,serif" font-size="14.00">TransitionCreateWhenReceive</text>
</g>
<!-- TransitionCreateTo&#45;&gt;TransitionCreateWhenReceive -->
<g id="edge27" class="edge">
<title>TransitionCreateTo&#45;&gt;TransitionCreateWhenReceive</title>
<path fill="none" stroke="black" d="M1367.08,-190.83C1422.55,-184.45 1500.84,-175.45 1564.02,-168.18"/>
<polygon fill="black" stroke="black" points="1564.19,-171.69 1573.72,-167.07 1563.39,-164.73 1564.19,-171.69"/>
<text text-anchor="middle" x="1463.55" y="-190.72" font-family="Times,serif" font-size="14.00">ReceiveText (state exists)</text>
</g>
<!-- TransitionCreateWhenReceive&#45;&gt;Editing -->
<g id="edge28" class="edge">
<title>TransitionCreateWhenReceive&#45;&gt;Editing</title>
<path fill="none" stroke="black" d="M1553.61,-152.53C1430.19,-149.62 1230.07,-146.77 1057.46,-152.92 970.15,-156.03 948.49,-160.25 861.38,-166.92 790.68,-172.33 762.98,-143.12 702.38,-179.92 681.36,-192.68 667.29,-217.2 658.89,-236.63"/>
<polygon fill="black" stroke="black" points="655.74,-235.09 655.26,-245.68 662.24,-237.7 655.74,-235.09"/>
<text text-anchor="middle" x="1127.96" y="-156.72" font-family="Times,serif" font-size="14.00">__cancel</text>
</g>
<!-- TransitionCreateAction -->
<g id="node11" class="node">
<title>TransitionCreateAction</title>
<ellipse fill="none" stroke="black" cx="1989.82" cy="-83.92" rx="93.68" ry="18"/>
<text text-anchor="middle" x="1989.82" y="-80.22" font-family="Times,serif" font-size="14.00">TransitionCreateAction</text>
</g>
<!-- TransitionCreateWhenReceive&#45;&gt;TransitionCreateAction -->
<g id="edge29" class="edge">
<title>TransitionCreateWhenReceive&#45;&gt;TransitionCreateAction</title>
<path fill="none" stroke="black" d="M1768.09,-144.96C1803.04,-139.93 1842.71,-133.02 1878.22,-123.92 1898.15,-118.82 1919.52,-111.54 1938.1,-104.58"/>
<polygon fill="black" stroke="black" points="1939.19,-107.92 1947.28,-101.08 1936.69,-101.38 1939.19,-107.92"/>
<text text-anchor="middle" x="1843.72" y="-141.72" font-family="Times,serif" font-size="14.00">ReceiveText</text>
</g>
<!-- TransitionCreateAction&#45;&gt;Editing -->
<g id="edge30" class="edge">
<title>TransitionCreateAction&#45;&gt;Editing</title>
<path fill="none" stroke="black" d="M1910.68,-93.93C1846.78,-101.26 1754.01,-109.92 1672.64,-109.92 949.42,-109.92 949.42,-109.92 949.42,-109.92 837.65,-109.92 791.36,-89.3 702.38,-156.92 676.93,-176.26 662.84,-210.99 655.61,-235.84"/>
<polygon fill="black" stroke="black" points="652.27,-234.79 653.07,-245.35 659.03,-236.59 652.27,-234.79"/>
<text text-anchor="middle" x="1295.75" y="-113.72" font-family="Times,serif" font-size="14.00">__cancel</text>
</g>
<!-- TransitionCreateAction&#45;&gt;Editing -->
<g id="edge31" class="edge">
<title>TransitionCreateAction&#45;&gt;Editing</title>
<path fill="none" stroke="black" d="M1910.02,-74.22C1846.13,-67.19 1753.72,-58.92 1672.64,-58.92 949.42,-58.92 949.42,-58.92 949.42,-58.92 837.89,-58.92 786.64,-29.86 702.38,-102.92 663.78,-136.38 652.95,-198.31 650,-235.14"/>
<polygon fill="black" stroke="black" points="646.51,-234.88 649.36,-245.08 653.49,-235.32 646.51,-234.88"/>
<text text-anchor="middle" x="1295.75" y="-62.72" font-family="Times,serif" font-size="14.00">__none</text>
</g>
<!-- TransitionCreateAction&#45;&gt;Editing -->
<g id="edge32" class="edge">
<title>TransitionCreateAction&#45;&gt;Editing</title>
<path fill="none" stroke="black" d="M1947.64,-67.43C1888.01,-45.08 1773.69,-7.92 1672.64,-7.92 949.42,-7.92 949.42,-7.92 949.42,-7.92 838.05,-7.92 784.03,25.82 702.38,-49.92 675.43,-74.91 658.96,-182.41 652.34,-235.3"/>
<polygon fill="black" stroke="black" points="648.88,-234.75 651.15,-245.1 655.83,-235.59 648.88,-234.75"/>
<text text-anchor="middle" x="1295.75" y="-11.72" font-family="Times,serif" font-size="14.00">ReceiveText</text>
</g>
</g>
</svg>
